G75*
%MOIN*%
%OFA0B0*%
%FSLAX25Y25*%
%IPPOS*%
%LPD*%
%AMOC8*
5,1,8,0,0,1.08239X$1,22.5*
%
%ADD10C,0.00100*%
%ADD11C,0.00600*%
%ADD12C,0.00500*%
%ADD13C,0.00400*%
D10*
X0203050Y0172300D02*
X0203651Y0172300D01*
X0203350Y0172300D02*
X0203350Y0173201D01*
X0203050Y0172901D01*
X0203971Y0173201D02*
X0203971Y0172300D01*
X0203971Y0172600D02*
X0204421Y0172600D01*
X0204571Y0172750D01*
X0204571Y0173051D01*
X0204421Y0173201D01*
X0203971Y0173201D01*
X0203971Y0182300D02*
X0204421Y0182300D01*
X0204571Y0182450D01*
X0204571Y0183051D01*
X0204421Y0183201D01*
X0203971Y0183201D01*
X0203971Y0182300D01*
X0203651Y0182300D02*
X0203350Y0182600D01*
X0203500Y0182600D02*
X0203050Y0182600D01*
X0203050Y0182300D02*
X0203050Y0183201D01*
X0203500Y0183201D01*
X0203651Y0183051D01*
X0203651Y0182750D01*
X0203500Y0182600D01*
X0204892Y0182300D02*
X0205492Y0182300D01*
X0205192Y0182300D02*
X0205192Y0183201D01*
X0204892Y0182901D01*
D11*
X0193500Y0167500D02*
X0216500Y0167500D01*
X0216500Y0127500D01*
X0209000Y0127500D01*
X0208998Y0127626D01*
X0208992Y0127751D01*
X0208982Y0127876D01*
X0208968Y0128001D01*
X0208951Y0128126D01*
X0208929Y0128250D01*
X0208904Y0128373D01*
X0208874Y0128495D01*
X0208841Y0128616D01*
X0208804Y0128736D01*
X0208764Y0128855D01*
X0208719Y0128972D01*
X0208671Y0129089D01*
X0208619Y0129203D01*
X0208564Y0129316D01*
X0208505Y0129427D01*
X0208443Y0129536D01*
X0208377Y0129643D01*
X0208308Y0129748D01*
X0208236Y0129851D01*
X0208161Y0129952D01*
X0208082Y0130050D01*
X0208000Y0130145D01*
X0207916Y0130238D01*
X0207828Y0130328D01*
X0207738Y0130416D01*
X0207645Y0130500D01*
X0207550Y0130582D01*
X0207452Y0130661D01*
X0207351Y0130736D01*
X0207248Y0130808D01*
X0207143Y0130877D01*
X0207036Y0130943D01*
X0206927Y0131005D01*
X0206816Y0131064D01*
X0206703Y0131119D01*
X0206589Y0131171D01*
X0206472Y0131219D01*
X0206355Y0131264D01*
X0206236Y0131304D01*
X0206116Y0131341D01*
X0205995Y0131374D01*
X0205873Y0131404D01*
X0205750Y0131429D01*
X0205626Y0131451D01*
X0205501Y0131468D01*
X0205376Y0131482D01*
X0205251Y0131492D01*
X0205126Y0131498D01*
X0205000Y0131500D01*
X0204874Y0131498D01*
X0204749Y0131492D01*
X0204624Y0131482D01*
X0204499Y0131468D01*
X0204374Y0131451D01*
X0204250Y0131429D01*
X0204127Y0131404D01*
X0204005Y0131374D01*
X0203884Y0131341D01*
X0203764Y0131304D01*
X0203645Y0131264D01*
X0203528Y0131219D01*
X0203411Y0131171D01*
X0203297Y0131119D01*
X0203184Y0131064D01*
X0203073Y0131005D01*
X0202964Y0130943D01*
X0202857Y0130877D01*
X0202752Y0130808D01*
X0202649Y0130736D01*
X0202548Y0130661D01*
X0202450Y0130582D01*
X0202355Y0130500D01*
X0202262Y0130416D01*
X0202172Y0130328D01*
X0202084Y0130238D01*
X0202000Y0130145D01*
X0201918Y0130050D01*
X0201839Y0129952D01*
X0201764Y0129851D01*
X0201692Y0129748D01*
X0201623Y0129643D01*
X0201557Y0129536D01*
X0201495Y0129427D01*
X0201436Y0129316D01*
X0201381Y0129203D01*
X0201329Y0129089D01*
X0201281Y0128972D01*
X0201236Y0128855D01*
X0201196Y0128736D01*
X0201159Y0128616D01*
X0201126Y0128495D01*
X0201096Y0128373D01*
X0201071Y0128250D01*
X0201049Y0128126D01*
X0201032Y0128001D01*
X0201018Y0127876D01*
X0201008Y0127751D01*
X0201002Y0127626D01*
X0201000Y0127500D01*
X0193500Y0127500D01*
X0193500Y0167500D01*
X0180000Y0167500D02*
X0180000Y0172500D01*
X0177500Y0175000D01*
X0180000Y0177500D01*
X0180000Y0182500D01*
X0177500Y0185000D01*
X0172500Y0185000D01*
X0170000Y0182500D01*
X0170000Y0177500D01*
X0172500Y0175000D01*
X0177500Y0175000D01*
X0180000Y0167500D02*
X0177500Y0165000D01*
X0180000Y0162500D01*
X0180000Y0157500D01*
X0177500Y0155000D01*
X0180000Y0152500D01*
X0180000Y0147500D01*
X0177500Y0145000D01*
X0180000Y0142500D01*
X0180000Y0137500D01*
X0177500Y0135000D01*
X0180000Y0132500D01*
X0180000Y0127500D01*
X0177500Y0125000D01*
X0180000Y0122500D01*
X0180000Y0117500D01*
X0177500Y0115000D01*
X0180000Y0112500D01*
X0180000Y0107500D01*
X0177500Y0105000D01*
X0180000Y0102500D01*
X0180000Y0097500D01*
X0177500Y0095000D01*
X0180000Y0092500D01*
X0180000Y0087500D01*
X0177500Y0085000D01*
X0180000Y0082500D01*
X0180000Y0077500D01*
X0177500Y0075000D01*
X0172500Y0075000D01*
X0170000Y0077500D01*
X0170000Y0082500D01*
X0172500Y0085000D01*
X0170000Y0087500D01*
X0170000Y0092500D01*
X0172500Y0095000D01*
X0177500Y0095000D01*
X0172500Y0095000D02*
X0170000Y0097500D01*
X0170000Y0102500D01*
X0172500Y0105000D01*
X0170000Y0107500D01*
X0170000Y0112500D01*
X0172500Y0115000D01*
X0170000Y0117500D01*
X0170000Y0122500D01*
X0172500Y0125000D01*
X0177500Y0125000D01*
X0172500Y0125000D02*
X0170000Y0127500D01*
X0170000Y0132500D01*
X0172500Y0135000D01*
X0170000Y0137500D01*
X0170000Y0142500D01*
X0172500Y0145000D01*
X0170000Y0147500D01*
X0170000Y0152500D01*
X0172500Y0155000D01*
X0177500Y0155000D01*
X0172500Y0155000D02*
X0170000Y0157500D01*
X0170000Y0162500D01*
X0172500Y0165000D01*
X0170000Y0167500D01*
X0170000Y0172500D01*
X0172500Y0175000D01*
X0167500Y0172500D02*
X0167500Y0167500D01*
X0165000Y0165000D01*
X0167500Y0162500D01*
X0167500Y0157500D01*
X0165000Y0155000D01*
X0167500Y0152500D01*
X0167500Y0147500D01*
X0165000Y0145000D01*
X0167500Y0142500D01*
X0167500Y0137500D01*
X0165000Y0135000D01*
X0167500Y0132500D01*
X0167500Y0127500D01*
X0165000Y0125000D01*
X0167500Y0122500D01*
X0167500Y0117500D01*
X0165000Y0115000D01*
X0167500Y0112500D01*
X0167500Y0107500D01*
X0165000Y0105000D01*
X0167500Y0102500D01*
X0167500Y0097500D01*
X0165000Y0095000D01*
X0167500Y0092500D01*
X0167500Y0087500D01*
X0165000Y0085000D01*
X0167500Y0082500D01*
X0167500Y0077500D01*
X0165000Y0075000D01*
X0160000Y0075000D01*
X0157500Y0077500D01*
X0157500Y0082500D01*
X0160000Y0085000D01*
X0157500Y0087500D01*
X0157500Y0092500D01*
X0160000Y0095000D01*
X0165000Y0095000D01*
X0160000Y0095000D02*
X0157500Y0097500D01*
X0157500Y0102500D01*
X0160000Y0105000D01*
X0157500Y0107500D01*
X0157500Y0112500D01*
X0160000Y0115000D01*
X0157500Y0117500D01*
X0157500Y0122500D01*
X0160000Y0125000D01*
X0165000Y0125000D01*
X0160000Y0125000D02*
X0157500Y0127500D01*
X0157500Y0132500D01*
X0160000Y0135000D01*
X0157500Y0137500D01*
X0157500Y0142500D01*
X0160000Y0145000D01*
X0157500Y0147500D01*
X0157500Y0152500D01*
X0160000Y0155000D01*
X0165000Y0155000D01*
X0160000Y0155000D02*
X0157500Y0157500D01*
X0157500Y0162500D01*
X0160000Y0165000D01*
X0157500Y0167500D01*
X0157500Y0172500D01*
X0160000Y0175000D01*
X0157500Y0177500D01*
X0157500Y0182500D01*
X0160000Y0185000D01*
X0165000Y0185000D01*
X0167500Y0182500D01*
X0167500Y0177500D01*
X0165000Y0175000D01*
X0167500Y0172500D01*
X0165000Y0175000D02*
X0160000Y0175000D01*
X0160000Y0165000D02*
X0165000Y0165000D01*
X0172500Y0165000D02*
X0177500Y0165000D01*
X0177500Y0185000D02*
X0180000Y0187500D01*
X0180000Y0192500D01*
X0177500Y0195000D01*
X0180000Y0197500D01*
X0180000Y0202500D01*
X0177500Y0205000D01*
X0180000Y0207500D01*
X0180000Y0212500D01*
X0177500Y0215000D01*
X0180000Y0217500D01*
X0180000Y0222500D01*
X0177500Y0225000D01*
X0172500Y0225000D01*
X0170000Y0222500D01*
X0170000Y0217500D01*
X0172500Y0215000D01*
X0177500Y0215000D01*
X0172500Y0215000D02*
X0170000Y0212500D01*
X0170000Y0207500D01*
X0172500Y0205000D01*
X0177500Y0205000D01*
X0172500Y0205000D02*
X0170000Y0202500D01*
X0170000Y0197500D01*
X0172500Y0195000D01*
X0177500Y0195000D01*
X0172500Y0195000D02*
X0170000Y0192500D01*
X0170000Y0187500D01*
X0172500Y0185000D01*
X0167500Y0187500D02*
X0167500Y0192500D01*
X0165000Y0195000D01*
X0167500Y0197500D01*
X0167500Y0202500D01*
X0165000Y0205000D01*
X0167500Y0207500D01*
X0167500Y0212500D01*
X0165000Y0215000D01*
X0167500Y0217500D01*
X0167500Y0222500D01*
X0165000Y0225000D01*
X0160000Y0225000D01*
X0157500Y0222500D01*
X0157500Y0217500D01*
X0160000Y0215000D01*
X0165000Y0215000D01*
X0160000Y0215000D02*
X0157500Y0212500D01*
X0157500Y0207500D01*
X0160000Y0205000D01*
X0165000Y0205000D01*
X0160000Y0205000D02*
X0157500Y0202500D01*
X0157500Y0197500D01*
X0160000Y0195000D01*
X0165000Y0195000D01*
X0160000Y0195000D02*
X0157500Y0192500D01*
X0157500Y0187500D01*
X0160000Y0185000D01*
X0165000Y0185000D02*
X0167500Y0187500D01*
X0177500Y0230000D02*
X0182500Y0230000D01*
X0185000Y0232500D01*
X0187500Y0230000D01*
X0192500Y0230000D01*
X0195000Y0232500D01*
X0195000Y0237500D01*
X0192500Y0240000D01*
X0187500Y0240000D01*
X0185000Y0237500D01*
X0185000Y0232500D01*
X0185000Y0237500D02*
X0182500Y0240000D01*
X0177500Y0240000D01*
X0175000Y0237500D01*
X0175000Y0232500D01*
X0177500Y0230000D01*
X0195000Y0232500D02*
X0197500Y0230000D01*
X0202500Y0230000D01*
X0205000Y0232500D01*
X0207500Y0230000D01*
X0212500Y0230000D01*
X0215000Y0232500D01*
X0217500Y0230000D01*
X0222500Y0230000D01*
X0225000Y0232500D01*
X0227500Y0230000D01*
X0232500Y0230000D01*
X0235000Y0232500D01*
X0235000Y0237500D01*
X0232500Y0240000D01*
X0227500Y0240000D01*
X0225000Y0237500D01*
X0225000Y0232500D01*
X0225000Y0237500D02*
X0222500Y0240000D01*
X0217500Y0240000D01*
X0215000Y0237500D01*
X0215000Y0232500D01*
X0215000Y0237500D02*
X0212500Y0240000D01*
X0207500Y0240000D01*
X0205000Y0237500D01*
X0205000Y0232500D01*
X0205000Y0237500D02*
X0202500Y0240000D01*
X0197500Y0240000D01*
X0195000Y0237500D01*
X0230000Y0222500D02*
X0230000Y0217500D01*
X0232500Y0215000D01*
X0230000Y0212500D01*
X0230000Y0207500D01*
X0232500Y0205000D01*
X0237500Y0205000D01*
X0240000Y0207500D01*
X0240000Y0212500D01*
X0237500Y0215000D01*
X0232500Y0215000D01*
X0237500Y0215000D02*
X0240000Y0217500D01*
X0240000Y0222500D01*
X0237500Y0225000D01*
X0232500Y0225000D01*
X0230000Y0222500D01*
X0232500Y0205000D02*
X0230000Y0202500D01*
X0230000Y0197500D01*
X0232500Y0195000D01*
X0230000Y0192500D01*
X0230000Y0187500D01*
X0232500Y0185000D01*
X0230000Y0182500D01*
X0230000Y0177500D01*
X0232500Y0175000D01*
X0237500Y0175000D01*
X0240000Y0177500D01*
X0240000Y0182500D01*
X0237500Y0185000D01*
X0232500Y0185000D01*
X0237500Y0185000D02*
X0240000Y0187500D01*
X0240000Y0192500D01*
X0237500Y0195000D01*
X0232500Y0195000D01*
X0237500Y0195000D02*
X0240000Y0197500D01*
X0240000Y0202500D01*
X0237500Y0205000D01*
X0242500Y0202500D02*
X0242500Y0197500D01*
X0245000Y0195000D01*
X0242500Y0192500D01*
X0242500Y0187500D01*
X0245000Y0185000D01*
X0242500Y0182500D01*
X0242500Y0177500D01*
X0245000Y0175000D01*
X0250000Y0175000D01*
X0252500Y0177500D01*
X0252500Y0182500D01*
X0250000Y0185000D01*
X0245000Y0185000D01*
X0250000Y0185000D02*
X0252500Y0187500D01*
X0252500Y0192500D01*
X0250000Y0195000D01*
X0245000Y0195000D01*
X0250000Y0195000D02*
X0252500Y0197500D01*
X0252500Y0202500D01*
X0250000Y0205000D01*
X0245000Y0205000D01*
X0242500Y0207500D01*
X0242500Y0212500D01*
X0245000Y0215000D01*
X0242500Y0217500D01*
X0242500Y0222500D01*
X0245000Y0225000D01*
X0250000Y0225000D01*
X0252500Y0222500D01*
X0252500Y0217500D01*
X0250000Y0215000D01*
X0252500Y0212500D01*
X0252500Y0207500D01*
X0250000Y0205000D01*
X0245000Y0205000D02*
X0242500Y0202500D01*
X0245000Y0215000D02*
X0250000Y0215000D01*
X0250000Y0175000D02*
X0252500Y0172500D01*
X0252500Y0167500D01*
X0250000Y0165000D01*
X0252500Y0162500D01*
X0252500Y0157500D01*
X0250000Y0155000D01*
X0252500Y0152500D01*
X0252500Y0147500D01*
X0250000Y0145000D01*
X0245000Y0145000D01*
X0242500Y0147500D01*
X0242500Y0152500D01*
X0245000Y0155000D01*
X0242500Y0157500D01*
X0242500Y0162500D01*
X0245000Y0165000D01*
X0242500Y0167500D01*
X0242500Y0172500D01*
X0245000Y0175000D01*
X0240000Y0172500D02*
X0240000Y0167500D01*
X0237500Y0165000D01*
X0240000Y0162500D01*
X0240000Y0157500D01*
X0237500Y0155000D01*
X0240000Y0152500D01*
X0240000Y0147500D01*
X0237500Y0145000D01*
X0232500Y0145000D01*
X0230000Y0147500D01*
X0230000Y0152500D01*
X0232500Y0155000D01*
X0230000Y0157500D01*
X0230000Y0162500D01*
X0232500Y0165000D01*
X0230000Y0167500D01*
X0230000Y0172500D01*
X0232500Y0175000D01*
X0237500Y0175000D02*
X0240000Y0172500D01*
X0237500Y0165000D02*
X0232500Y0165000D01*
X0232500Y0155000D02*
X0237500Y0155000D01*
X0237500Y0145000D02*
X0240000Y0142500D01*
X0240000Y0137500D01*
X0237500Y0135000D01*
X0240000Y0132500D01*
X0240000Y0127500D01*
X0237500Y0125000D01*
X0240000Y0122500D01*
X0240000Y0117500D01*
X0237500Y0115000D01*
X0232500Y0115000D01*
X0230000Y0117500D01*
X0230000Y0122500D01*
X0232500Y0125000D01*
X0230000Y0127500D01*
X0230000Y0132500D01*
X0232500Y0135000D01*
X0230000Y0137500D01*
X0230000Y0142500D01*
X0232500Y0145000D01*
X0232500Y0135000D02*
X0237500Y0135000D01*
X0242500Y0132500D02*
X0242500Y0127500D01*
X0245000Y0125000D01*
X0242500Y0122500D01*
X0242500Y0117500D01*
X0245000Y0115000D01*
X0250000Y0115000D01*
X0252500Y0117500D01*
X0252500Y0122500D01*
X0250000Y0125000D01*
X0245000Y0125000D01*
X0250000Y0125000D02*
X0252500Y0127500D01*
X0252500Y0132500D01*
X0250000Y0135000D01*
X0245000Y0135000D01*
X0242500Y0132500D01*
X0245000Y0135000D02*
X0242500Y0137500D01*
X0242500Y0142500D01*
X0245000Y0145000D01*
X0250000Y0145000D02*
X0252500Y0142500D01*
X0252500Y0137500D01*
X0250000Y0135000D01*
X0250000Y0115000D02*
X0252500Y0112500D01*
X0252500Y0107500D01*
X0250000Y0105000D01*
X0252500Y0102500D01*
X0252500Y0097500D01*
X0250000Y0095000D01*
X0252500Y0092500D01*
X0252500Y0087500D01*
X0250000Y0085000D01*
X0252500Y0082500D01*
X0252500Y0077500D01*
X0250000Y0075000D01*
X0245000Y0075000D01*
X0242500Y0077500D01*
X0242500Y0082500D01*
X0245000Y0085000D01*
X0242500Y0087500D01*
X0242500Y0092500D01*
X0245000Y0095000D01*
X0242500Y0097500D01*
X0242500Y0102500D01*
X0245000Y0105000D01*
X0242500Y0107500D01*
X0242500Y0112500D01*
X0245000Y0115000D01*
X0240000Y0112500D02*
X0240000Y0107500D01*
X0237500Y0105000D01*
X0240000Y0102500D01*
X0240000Y0097500D01*
X0237500Y0095000D01*
X0240000Y0092500D01*
X0240000Y0087500D01*
X0237500Y0085000D01*
X0240000Y0082500D01*
X0240000Y0077500D01*
X0237500Y0075000D01*
X0232500Y0075000D01*
X0230000Y0077500D01*
X0230000Y0082500D01*
X0232500Y0085000D01*
X0230000Y0087500D01*
X0230000Y0092500D01*
X0232500Y0095000D01*
X0230000Y0097500D01*
X0230000Y0102500D01*
X0232500Y0105000D01*
X0230000Y0107500D01*
X0230000Y0112500D01*
X0232500Y0115000D01*
X0237500Y0115000D02*
X0240000Y0112500D01*
X0237500Y0105000D02*
X0232500Y0105000D01*
X0232500Y0095000D02*
X0237500Y0095000D01*
X0237500Y0085000D02*
X0232500Y0085000D01*
X0225000Y0085000D02*
X0222500Y0082500D01*
X0217500Y0082500D01*
X0215000Y0085000D01*
X0212500Y0082500D01*
X0207500Y0082500D01*
X0205000Y0085000D01*
X0202500Y0082500D01*
X0197500Y0082500D01*
X0195000Y0085000D01*
X0192500Y0082500D01*
X0187500Y0082500D01*
X0185000Y0085000D01*
X0185000Y0090000D01*
X0187500Y0092500D01*
X0192500Y0092500D01*
X0195000Y0090000D01*
X0197500Y0092500D01*
X0202500Y0092500D01*
X0205000Y0090000D01*
X0205000Y0085000D01*
X0205000Y0090000D02*
X0207500Y0092500D01*
X0212500Y0092500D01*
X0215000Y0090000D01*
X0217500Y0092500D01*
X0222500Y0092500D01*
X0225000Y0090000D01*
X0225000Y0085000D01*
X0215000Y0085000D02*
X0215000Y0090000D01*
X0195000Y0090000D02*
X0195000Y0085000D01*
X0177500Y0085000D02*
X0172500Y0085000D01*
X0165000Y0085000D02*
X0160000Y0085000D01*
X0160000Y0105000D02*
X0165000Y0105000D01*
X0172500Y0105000D02*
X0177500Y0105000D01*
X0177500Y0115000D02*
X0172500Y0115000D01*
X0165000Y0115000D02*
X0160000Y0115000D01*
X0160000Y0135000D02*
X0165000Y0135000D01*
X0172500Y0135000D02*
X0177500Y0135000D01*
X0177500Y0145000D02*
X0172500Y0145000D01*
X0165000Y0145000D02*
X0160000Y0145000D01*
X0232500Y0125000D02*
X0237500Y0125000D01*
X0245000Y0105000D02*
X0250000Y0105000D01*
X0250000Y0095000D02*
X0245000Y0095000D01*
X0245000Y0085000D02*
X0250000Y0085000D01*
X0250000Y0155000D02*
X0245000Y0155000D01*
X0245000Y0165000D02*
X0250000Y0165000D01*
D12*
X0150546Y0077953D02*
X0150546Y0076451D01*
X0150546Y0077202D02*
X0154299Y0077202D01*
X0155050Y0076451D01*
X0155050Y0075701D01*
X0154299Y0074950D01*
X0153549Y0079554D02*
X0153549Y0081806D01*
X0152798Y0082556D01*
X0151297Y0082556D01*
X0150546Y0081806D01*
X0150546Y0079554D01*
X0155050Y0079554D01*
X0155050Y0084158D02*
X0154299Y0084158D01*
X0151297Y0087160D01*
X0150546Y0087160D01*
X0150546Y0084158D01*
X0163046Y0081806D02*
X0163046Y0079554D01*
X0167550Y0079554D01*
X0166049Y0079554D02*
X0166049Y0081806D01*
X0165298Y0082556D01*
X0163797Y0082556D01*
X0163046Y0081806D01*
X0165298Y0084158D02*
X0163797Y0085659D01*
X0163046Y0087160D01*
X0165298Y0086410D02*
X0165298Y0084158D01*
X0166799Y0084158D01*
X0167550Y0084908D01*
X0167550Y0086410D01*
X0166799Y0087160D01*
X0166049Y0087160D01*
X0165298Y0086410D01*
X0163046Y0077953D02*
X0163046Y0076451D01*
X0163046Y0077202D02*
X0166799Y0077202D01*
X0167550Y0076451D01*
X0167550Y0075701D01*
X0166799Y0074950D01*
X0185701Y0094950D02*
X0184950Y0095701D01*
X0185701Y0094950D02*
X0186451Y0094950D01*
X0187202Y0095701D01*
X0187202Y0099454D01*
X0186451Y0099454D02*
X0187953Y0099454D01*
X0189554Y0099454D02*
X0191806Y0099454D01*
X0192556Y0098703D01*
X0192556Y0097202D01*
X0191806Y0096451D01*
X0189554Y0096451D01*
X0189554Y0094950D02*
X0189554Y0099454D01*
X0194158Y0097953D02*
X0195659Y0099454D01*
X0195659Y0094950D01*
X0194158Y0094950D02*
X0197160Y0094950D01*
X0204473Y0121750D02*
X0205974Y0121750D01*
X0205223Y0121750D02*
X0205223Y0126254D01*
X0204473Y0126254D02*
X0205974Y0126254D01*
X0207542Y0125503D02*
X0207542Y0122501D01*
X0208293Y0121750D01*
X0209794Y0121750D01*
X0210545Y0122501D01*
X0212146Y0121750D02*
X0215149Y0121750D01*
X0213647Y0121750D02*
X0213647Y0126254D01*
X0212146Y0124753D01*
X0210545Y0125503D02*
X0209794Y0126254D01*
X0208293Y0126254D01*
X0207542Y0125503D01*
X0242446Y0213239D02*
X0242446Y0214741D01*
X0242446Y0213990D02*
X0246199Y0213990D01*
X0246950Y0213239D01*
X0246950Y0212489D01*
X0246199Y0211738D01*
X0245449Y0216342D02*
X0245449Y0218594D01*
X0244698Y0219345D01*
X0243197Y0219345D01*
X0242446Y0218594D01*
X0242446Y0216342D01*
X0246950Y0216342D01*
X0246199Y0220946D02*
X0246950Y0221697D01*
X0246950Y0223198D01*
X0246199Y0223949D01*
X0245449Y0223949D01*
X0244698Y0223198D01*
X0244698Y0222447D01*
X0244698Y0223198D02*
X0243947Y0223949D01*
X0243197Y0223949D01*
X0242446Y0223198D01*
X0242446Y0221697D01*
X0243197Y0220946D01*
X0254946Y0220946D02*
X0257198Y0220946D01*
X0256447Y0222447D01*
X0256447Y0223198D01*
X0257198Y0223949D01*
X0258699Y0223949D01*
X0259450Y0223198D01*
X0259450Y0221697D01*
X0258699Y0220946D01*
X0257198Y0219345D02*
X0257949Y0218594D01*
X0257949Y0216342D01*
X0259450Y0216342D02*
X0254946Y0216342D01*
X0254946Y0218594D01*
X0255697Y0219345D01*
X0257198Y0219345D01*
X0254946Y0220946D02*
X0254946Y0223949D01*
X0254946Y0214741D02*
X0254946Y0213239D01*
X0254946Y0213990D02*
X0258699Y0213990D01*
X0259450Y0213239D01*
X0259450Y0212489D01*
X0258699Y0211738D01*
X0187160Y0242450D02*
X0184158Y0242450D01*
X0187160Y0245453D01*
X0187160Y0246203D01*
X0186410Y0246954D01*
X0184908Y0246954D01*
X0184158Y0246203D01*
X0182556Y0246203D02*
X0182556Y0244702D01*
X0181806Y0243951D01*
X0179554Y0243951D01*
X0179554Y0242450D02*
X0179554Y0246954D01*
X0181806Y0246954D01*
X0182556Y0246203D01*
X0177953Y0246954D02*
X0176451Y0246954D01*
X0177202Y0246954D02*
X0177202Y0243201D01*
X0176451Y0242450D01*
X0175701Y0242450D01*
X0174950Y0243201D01*
D13*
X0200992Y0109804D02*
X0203294Y0109804D01*
X0204061Y0109037D01*
X0204061Y0107502D01*
X0203294Y0106735D01*
X0200992Y0106735D01*
X0202527Y0106735D02*
X0204061Y0105200D01*
X0205596Y0105200D02*
X0208665Y0108269D01*
X0208665Y0109037D01*
X0207898Y0109804D01*
X0206363Y0109804D01*
X0205596Y0109037D01*
X0205596Y0105200D02*
X0208665Y0105200D01*
X0210200Y0105200D02*
X0210200Y0109804D01*
X0212502Y0109804D01*
X0213269Y0109037D01*
X0213269Y0107502D01*
X0212502Y0106735D01*
X0210200Y0106735D01*
X0211735Y0106735D02*
X0213269Y0105200D01*
X0214804Y0105967D02*
X0215571Y0105200D01*
X0217106Y0105200D01*
X0217873Y0105967D01*
X0217873Y0106735D01*
X0217106Y0107502D01*
X0216339Y0107502D01*
X0217106Y0107502D02*
X0217873Y0108269D01*
X0217873Y0109037D01*
X0217106Y0109804D01*
X0215571Y0109804D01*
X0214804Y0109037D01*
X0200992Y0109804D02*
X0200992Y0105200D01*
X0194631Y0094804D02*
X0194631Y0090200D01*
X0196165Y0090200D02*
X0193096Y0090200D01*
X0191561Y0090200D02*
X0190027Y0091735D01*
X0190794Y0091735D02*
X0188492Y0091735D01*
X0188492Y0090200D02*
X0188492Y0094804D01*
X0190794Y0094804D01*
X0191561Y0094037D01*
X0191561Y0092502D01*
X0190794Y0091735D01*
X0193096Y0093269D02*
X0194631Y0094804D01*
M02*
