G75*
%MOIN*%
%OFA0B0*%
%FSLAX25Y25*%
%IPPOS*%
%LPD*%
%AMOC8*
5,1,8,0,0,1.08239X$1,22.5*
%
%ADD10C,0.05200*%
%ADD11C,0.06000*%
D10*
X0188440Y0132500D02*
X0191560Y0132500D01*
X0191560Y0142500D02*
X0188440Y0142500D01*
X0188440Y0152500D02*
X0191560Y0152500D01*
X0191560Y0162500D02*
X0188440Y0162500D01*
X0218440Y0162500D02*
X0221560Y0162500D01*
X0221560Y0152500D02*
X0218440Y0152500D01*
X0218440Y0142500D02*
X0221560Y0142500D01*
X0221560Y0132500D02*
X0218440Y0132500D01*
D11*
X0164300Y0080000D02*
X0160700Y0080000D01*
X0160700Y0090000D02*
X0164300Y0090000D01*
X0164300Y0100000D02*
X0160700Y0100000D01*
X0160700Y0110000D02*
X0164300Y0110000D01*
X0164300Y0120000D02*
X0160700Y0120000D01*
X0160700Y0130000D02*
X0164300Y0130000D01*
X0164300Y0140000D02*
X0160700Y0140000D01*
X0160700Y0150000D02*
X0164300Y0150000D01*
X0164300Y0160000D02*
X0160700Y0160000D01*
X0160700Y0170000D02*
X0164300Y0170000D01*
X0164300Y0180000D02*
X0160700Y0180000D01*
X0160700Y0190000D02*
X0164300Y0190000D01*
X0164300Y0200000D02*
X0160700Y0200000D01*
X0160700Y0210000D02*
X0164300Y0210000D01*
X0164300Y0220000D02*
X0160700Y0220000D01*
X0173200Y0220000D02*
X0176800Y0220000D01*
X0176800Y0210000D02*
X0173200Y0210000D01*
X0173200Y0200000D02*
X0176800Y0200000D01*
X0176800Y0190000D02*
X0173200Y0190000D01*
X0173200Y0180000D02*
X0176800Y0180000D01*
X0176800Y0170000D02*
X0173200Y0170000D01*
X0173200Y0160000D02*
X0176800Y0160000D01*
X0176800Y0150000D02*
X0173200Y0150000D01*
X0173200Y0140000D02*
X0176800Y0140000D01*
X0176800Y0130000D02*
X0173200Y0130000D01*
X0173200Y0120000D02*
X0176800Y0120000D01*
X0176800Y0110000D02*
X0173200Y0110000D01*
X0173200Y0100000D02*
X0176800Y0100000D01*
X0176800Y0090000D02*
X0173200Y0090000D01*
X0173200Y0080000D02*
X0176800Y0080000D01*
X0190000Y0085700D02*
X0190000Y0089300D01*
X0200000Y0089300D02*
X0200000Y0085700D01*
X0210000Y0085700D02*
X0210000Y0089300D01*
X0220000Y0089300D02*
X0220000Y0085700D01*
X0233200Y0090000D02*
X0236800Y0090000D01*
X0236800Y0080000D02*
X0233200Y0080000D01*
X0245700Y0080000D02*
X0249300Y0080000D01*
X0249300Y0090000D02*
X0245700Y0090000D01*
X0245700Y0100000D02*
X0249300Y0100000D01*
X0249300Y0110000D02*
X0245700Y0110000D01*
X0245700Y0120000D02*
X0249300Y0120000D01*
X0249300Y0130000D02*
X0245700Y0130000D01*
X0245700Y0140000D02*
X0249300Y0140000D01*
X0249300Y0150000D02*
X0245700Y0150000D01*
X0245700Y0160000D02*
X0249300Y0160000D01*
X0249300Y0170000D02*
X0245700Y0170000D01*
X0245700Y0180000D02*
X0249300Y0180000D01*
X0249300Y0190000D02*
X0245700Y0190000D01*
X0245700Y0200000D02*
X0249300Y0200000D01*
X0249300Y0210000D02*
X0245700Y0210000D01*
X0245700Y0220000D02*
X0249300Y0220000D01*
X0236800Y0220000D02*
X0233200Y0220000D01*
X0233200Y0210000D02*
X0236800Y0210000D01*
X0236800Y0200000D02*
X0233200Y0200000D01*
X0233200Y0190000D02*
X0236800Y0190000D01*
X0236800Y0180000D02*
X0233200Y0180000D01*
X0233200Y0170000D02*
X0236800Y0170000D01*
X0236800Y0160000D02*
X0233200Y0160000D01*
X0233200Y0150000D02*
X0236800Y0150000D01*
X0236800Y0140000D02*
X0233200Y0140000D01*
X0233200Y0130000D02*
X0236800Y0130000D01*
X0236800Y0120000D02*
X0233200Y0120000D01*
X0233200Y0110000D02*
X0236800Y0110000D01*
X0236800Y0100000D02*
X0233200Y0100000D01*
X0230000Y0233200D02*
X0230000Y0236800D01*
X0220000Y0236800D02*
X0220000Y0233200D01*
X0210000Y0233200D02*
X0210000Y0236800D01*
X0200000Y0236800D02*
X0200000Y0233200D01*
X0190000Y0233200D02*
X0190000Y0236800D01*
X0180000Y0236800D02*
X0180000Y0233200D01*
M02*
