%
M48
M72
T32C0.0320
T40C0.0400
%
T32
X19000Y13250
X19000Y14250
X19000Y15250
X19000Y16250
X22000Y16250
X22000Y15250
X22000Y14250
X22000Y13250
T40
X16250Y8000
X16250Y9000
X16250Y10000
X16250Y11000
X16250Y12000
X16250Y13000
X16250Y14000
X16250Y15000
X16250Y16000
X16250Y17000
X16250Y18000
X16250Y19000
X16250Y20000
X16250Y21000
X16250Y22000
X17500Y22000
X17500Y21000
X17500Y20000
X17500Y19000
X17500Y18000
X17500Y17000
X17500Y16000
X17500Y15000
X17500Y14000
X17500Y13000
X17500Y12000
X17500Y11000
X17500Y10000
X17500Y9000
X17500Y8000
X19000Y8750
X20000Y8750
X21000Y8750
X22000Y8750
X23500Y9000
X23500Y8000
X24750Y8000
X24750Y9000
X24750Y10000
X24750Y11000
X24750Y12000
X24750Y13000
X24750Y14000
X24750Y15000
X24750Y16000
X24750Y17000
X24750Y18000
X24750Y19000
X24750Y20000
X24750Y21000
X24750Y22000
X23500Y22000
X23500Y21000
X23500Y20000
X23500Y19000
X23500Y18000
X23500Y17000
X23500Y16000
X23500Y15000
X23500Y14000
X23500Y13000
X23500Y12000
X23500Y11000
X23500Y10000
X23000Y23500
X22000Y23500
X21000Y23500
X20000Y23500
X19000Y23500
X18000Y23500
M30
