<?xml version="1.0" standalone="no"?>
<!DOCTYPE svg PUBLIC "-//W3C//DTD SVG 1.1//EN" "http://www.w3.org/Graphics/SVG/1.1/DTD/svg11.dtd">
<svg width="297" height="123" viewBox="0 -123 297 123" xmlns="http://www.w3.org/2000/svg" version="1.1">
<title>OpenSCAD Model</title>
<path d="
M 0,-0 L 57,-0 L 57,-57 L 0,-57 z
M 4,-4 L 4,-13.5 L 13.5,-13.5 L 13.5,-4 z
M 4,-17.166 L 4,-26.666 L 13.5,-26.666 L 13.5,-17.166 z
M 4,-30.332 L 4,-39.832 L 13.5,-39.832 L 13.5,-30.332 z
M 4,-43.498 L 4,-52.998 L 13.5,-52.998 L 13.5,-43.498 z
M 17.166,-4 L 17.166,-13.5 L 26.666,-13.5 L 26.666,-4 z
M 17.166,-17.166 L 17.166,-26.666 L 26.666,-26.666 L 26.666,-17.166 z
M 17.166,-30.332 L 17.166,-39.832 L 26.666,-39.832 L 26.666,-30.332 z
M 17.166,-43.498 L 17.166,-52.998 L 26.666,-52.998 L 26.666,-43.498 z
M 30.332,-4 L 30.332,-13.5 L 39.832,-13.5 L 39.832,-4 z
M 30.332,-17.166 L 30.332,-26.666 L 39.832,-26.666 L 39.832,-17.166 z
M 30.332,-30.332 L 30.332,-39.832 L 39.832,-39.832 L 39.832,-30.332 z
M 30.332,-43.498 L 30.332,-52.998 L 39.832,-52.998 L 39.832,-43.498 z
M 43.498,-4 L 43.498,-13.5 L 52.998,-13.5 L 52.998,-4 z
M 43.498,-17.166 L 43.498,-26.666 L 52.998,-26.666 L 52.998,-17.166 z
M 43.498,-30.332 L 43.498,-39.832 L 52.998,-39.832 L 52.998,-30.332 z
M 43.498,-43.498 L 43.498,-52.998 L 52.998,-52.998 L 52.998,-43.498 z
M 0,-60 L 57,-60 L 57,-117 L 0,-117 z
M 4,-64 L 4,-73.5 L 13.5,-73.5 L 13.5,-64 z
M 4,-77.166 L 4,-86.666 L 13.5,-86.666 L 13.5,-77.166 z
M 4,-90.332 L 4,-99.832 L 13.5,-99.832 L 13.5,-90.332 z
M 4,-103.498 L 4,-112.998 L 13.5,-112.998 L 13.5,-103.498 z
M 17.166,-64 L 17.166,-73.5 L 26.666,-73.5 L 26.666,-64 z
M 17.166,-77.166 L 17.166,-86.666 L 26.666,-86.666 L 26.666,-77.166 z
M 17.166,-90.332 L 17.166,-99.832 L 26.666,-99.832 L 26.666,-90.332 z
M 17.166,-103.498 L 17.166,-112.998 L 26.666,-112.998 L 26.666,-103.498 z
M 30.332,-64 L 30.332,-73.5 L 39.832,-73.5 L 39.832,-64 z
M 30.332,-77.166 L 30.332,-86.666 L 39.832,-86.666 L 39.832,-77.166 z
M 30.332,-90.332 L 30.332,-99.832 L 39.832,-99.832 L 39.832,-90.332 z
M 30.332,-103.498 L 30.332,-112.998 L 39.832,-112.998 L 39.832,-103.498 z
M 43.498,-64 L 43.498,-73.5 L 52.998,-73.5 L 52.998,-64 z
M 43.498,-77.166 L 43.498,-86.666 L 52.998,-86.666 L 52.998,-77.166 z
M 43.498,-90.332 L 43.498,-99.832 L 52.998,-99.832 L 52.998,-90.332 z
M 43.498,-103.498 L 43.498,-112.998 L 52.998,-112.998 L 52.998,-103.498 z
M 63,-3 L 114,-3 L 114,-54 L 63,-54 z
M 66.3,-6.3 L 66.3,-11.3 L 71.3,-11.3 L 71.3,-6.3 z
M 66.3,-19.266 L 66.3,-24.266 L 71.3,-24.266 L 71.3,-19.266 z
M 66.3,-32.232 L 66.3,-37.232 L 71.3,-37.232 L 71.3,-32.232 z
M 66.3,-45.198 L 66.3,-50.198 L 71.3,-50.198 L 71.3,-45.198 z
M 79.266,-6.3 L 79.266,-11.3 L 84.266,-11.3 L 84.266,-6.3 z
M 79.266,-19.266 L 79.266,-24.266 L 84.266,-24.266 L 84.266,-19.266 z
M 79.266,-32.232 L 79.266,-37.232 L 84.266,-37.232 L 84.266,-32.232 z
M 79.266,-45.198 L 79.266,-50.198 L 84.266,-50.198 L 84.266,-45.198 z
M 92.232,-6.3 L 92.232,-11.3 L 97.232,-11.3 L 97.232,-6.3 z
M 92.232,-19.266 L 92.232,-24.266 L 97.232,-24.266 L 97.232,-19.266 z
M 92.232,-32.232 L 92.232,-37.232 L 97.232,-37.232 L 97.232,-32.232 z
M 92.232,-45.198 L 92.232,-50.198 L 97.232,-50.198 L 97.232,-45.198 z
M 105.198,-6.3 L 105.198,-11.3 L 110.198,-11.3 L 110.198,-6.3 z
M 105.198,-19.266 L 105.198,-24.266 L 110.198,-24.266 L 110.198,-19.266 z
M 105.198,-32.232 L 105.198,-37.232 L 110.198,-37.232 L 110.198,-32.232 z
M 105.198,-45.198 L 105.198,-50.198 L 110.198,-50.198 L 110.198,-45.198 z
M 120,-4 L 123,-4 L 123,-0 L 177,-0 L 177,-4 L 174,-4
 L 174,-8 L 177,-8 L 177,-12 L 174,-12 L 174,-16 L 177,-16
 L 177,-20 L 174,-20 L 174,-24 L 177,-24 L 177,-28 L 174,-28
 L 174,-32 L 177,-32 L 177,-39 L 171,-39 L 171,-36 L 166,-36
 L 166,-39 L 163,-39 L 163,-36 L 158,-36 L 158,-39 L 155,-39
 L 155,-36 L 150,-36 L 150,-39 L 147,-39 L 147,-36 L 142,-36
 L 142,-39 L 139,-39 L 139,-36 L 134,-36 L 134,-39 L 131,-39
 L 131,-36 L 126,-36 L 126,-39 L 123,-39 L 123,-32 L 120,-32
 L 120,-28 L 123,-28 L 123,-24 L 120,-24 L 120,-20 L 123,-20
 L 123,-16 L 120,-16 L 120,-12 L 123,-12 L 123,-8 L 120,-8
 z
M 120,-46 L 123,-46 L 123,-42 L 177,-42 L 177,-46 L 174,-46
 L 174,-50 L 177,-50 L 177,-54 L 174,-54 L 174,-58 L 177,-58
 L 177,-62 L 174,-62 L 174,-66 L 177,-66 L 177,-70 L 174,-70
 L 174,-74 L 177,-74 L 177,-81 L 171,-81 L 171,-78 L 166,-78
 L 166,-81 L 163,-81 L 163,-78 L 158,-78 L 158,-81 L 155,-81
 L 155,-78 L 150,-78 L 150,-81 L 147,-81 L 147,-78 L 142,-78
 L 142,-81 L 139,-81 L 139,-78 L 134,-78 L 134,-81 L 131,-81
 L 131,-78 L 126,-78 L 126,-81 L 123,-81 L 123,-74 L 120,-74
 L 120,-70 L 123,-70 L 123,-66 L 120,-66 L 120,-62 L 123,-62
 L 123,-58 L 120,-58 L 120,-54 L 123,-54 L 123,-50 L 120,-50
 z
M 120,-88 L 123,-88 L 123,-84 L 177,-84 L 177,-88 L 174,-88
 L 174,-92 L 177,-92 L 177,-96 L 174,-96 L 174,-100 L 177,-100
 L 177,-104 L 174,-104 L 174,-108 L 177,-108 L 177,-112 L 174,-112
 L 174,-116 L 177,-116 L 177,-123 L 171,-123 L 171,-120 L 166,-120
 L 166,-123 L 163,-123 L 163,-120 L 158,-120 L 158,-123 L 155,-123
 L 155,-120 L 150,-120 L 150,-123 L 147,-123 L 147,-120 L 142,-120
 L 142,-123 L 139,-123 L 139,-120 L 134,-120 L 134,-123 L 131,-123
 L 131,-120 L 126,-120 L 126,-123 L 123,-123 L 123,-116 L 120,-116
 L 120,-112 L 123,-112 L 123,-108 L 120,-108 L 120,-104 L 123,-104
 L 123,-100 L 120,-100 L 120,-96 L 123,-96 L 123,-92 L 120,-92
 z
M 180,-4 L 183,-4 L 183,-0 L 237,-0 L 237,-4 L 234,-4
 L 234,-8 L 237,-8 L 237,-12 L 234,-12 L 234,-16 L 237,-16
 L 237,-20 L 234,-20 L 234,-24 L 237,-24 L 237,-28 L 234,-28
 L 234,-32 L 237,-32 L 237,-39 L 231,-39 L 231,-36 L 226,-36
 L 226,-39 L 223,-39 L 223,-36 L 218,-36 L 218,-39 L 215,-39
 L 215,-36 L 210,-36 L 210,-39 L 207,-39 L 207,-36 L 202,-36
 L 202,-39 L 199,-39 L 199,-36 L 194,-36 L 194,-39 L 191,-39
 L 191,-36 L 186,-36 L 186,-39 L 183,-39 L 183,-32 L 180,-32
 L 180,-28 L 183,-28 L 183,-24 L 180,-24 L 180,-20 L 183,-20
 L 183,-16 L 180,-16 L 180,-12 L 183,-12 L 183,-8 L 180,-8
 z
M 213,-8 L 213,-13 L 224,-13 L 224,-8 z
M 240,-6 L 243,-6 L 243,-3 L 246,-3 L 246,-0 L 251,-0
 L 251,-3 L 254,-3 L 254,-0 L 259,-0 L 259,-3 L 262,-3
 L 262,-0 L 267,-0 L 267,-3 L 270,-3 L 270,-0 L 275,-0
 L 275,-3 L 278,-3 L 278,-0 L 283,-0 L 283,-3 L 286,-3
 L 286,-0 L 291,-0 L 291,-3 L 294,-3 L 294,-6 L 297,-6
 L 297,-11 L 294,-11 L 294,-14 L 297,-14 L 297,-19 L 294,-19
 L 294,-22 L 297,-22 L 297,-27 L 294,-27 L 294,-30 L 297,-30
 L 297,-35 L 294,-35 L 294,-38 L 297,-38 L 297,-43 L 294,-43
 L 294,-46 L 297,-46 L 297,-51 L 294,-51 L 294,-54 L 291,-54
 L 291,-57 L 286,-57 L 286,-54 L 283,-54 L 283,-57 L 278,-57
 L 278,-54 L 275,-54 L 275,-57 L 270,-57 L 270,-54 L 267,-54
 L 267,-57 L 262,-57 L 262,-54 L 259,-54 L 259,-57 L 254,-57
 L 254,-54 L 251,-54 L 251,-57 L 246,-57 L 246,-54 L 243,-54
 L 243,-51 L 240,-51 L 240,-46 L 243,-46 L 243,-43 L 240,-43
 L 240,-38 L 243,-38 L 243,-35 L 240,-35 L 240,-30 L 243,-30
 L 243,-27 L 240,-27 L 240,-22 L 243,-22 L 243,-19 L 240,-19
 L 240,-14 L 243,-14 L 243,-11 L 240,-11 z
M 240,-66 L 243,-66 L 243,-63 L 246,-63 L 246,-60 L 251,-60
 L 251,-63 L 254,-63 L 254,-60 L 259,-60 L 259,-63 L 262,-63
 L 262,-60 L 267,-60 L 267,-63 L 270,-63 L 270,-60 L 275,-60
 L 275,-63 L 278,-63 L 278,-60 L 283,-60 L 283,-63 L 286,-63
 L 286,-60 L 291,-60 L 291,-63 L 294,-63 L 294,-66 L 297,-66
 L 297,-71 L 294,-71 L 294,-74 L 297,-74 L 297,-79 L 294,-79
 L 294,-82 L 297,-82 L 297,-87 L 294,-87 L 294,-90 L 297,-90
 L 297,-95 L 294,-95 L 294,-98 L 297,-98 L 297,-103 L 294,-103
 L 294,-106 L 297,-106 L 297,-111 L 294,-111 L 294,-114 L 291,-114
 L 291,-117 L 286,-117 L 286,-114 L 283,-114 L 283,-117 L 278,-117
 L 278,-114 L 275,-114 L 275,-117 L 270,-117 L 270,-114 L 267,-114
 L 267,-117 L 262,-117 L 262,-114 L 259,-114 L 259,-117 L 254,-117
 L 254,-114 L 251,-114 L 251,-117 L 246,-117 L 246,-114 L 243,-114
 L 243,-111 L 240,-111 L 240,-106 L 243,-106 L 243,-103 L 240,-103
 L 240,-98 L 243,-98 L 243,-95 L 240,-95 L 240,-90 L 243,-90
 L 243,-87 L 240,-87 L 240,-82 L 243,-82 L 243,-79 L 240,-79
 L 240,-74 L 243,-74 L 243,-71 L 240,-71 z
M 245.5,-64.5 L 245.5,-103.5 L 249.5,-103.5 L 249.5,-64.5 z
M 266,-64.5 L 266,-103.5 L 270,-103.5 L 270,-64.5 z
" stroke="black" fill="lightgray" stroke-width="0.5"/></svg>
