<?xml version="1.0" standalone="no"?>
<!DOCTYPE svg PUBLIC "-//W3C//DTD SVG 1.1//EN" "http://www.w3.org/Graphics/SVG/1.1/DTD/svg11.dtd">
<svg width="57" height="57" viewBox="0 -57 57 57" xmlns="http://www.w3.org/2000/svg" version="1.1">
<title>OpenSCAD Model</title>
<path d="
M 0,-0 L 57,-0 L 57,-57 L 0,-57 z
M 3,-3 L 3,-54 L 54,-54 L 54,-3 z
M 6.3,-6.3 L 11.3,-6.3 L 11.3,-11.3 L 6.3,-11.3 z
M 6.3,-19.266 L 11.3,-19.266 L 11.3,-24.266 L 6.3,-24.266 z
M 6.3,-32.232 L 11.3,-32.232 L 11.3,-37.232 L 6.3,-37.232 z
M 6.3,-45.198 L 11.3,-45.198 L 11.3,-50.198 L 6.3,-50.198 z
M 19.266,-6.3 L 24.266,-6.3 L 24.266,-11.3 L 19.266,-11.3 z
M 19.266,-19.266 L 24.266,-19.266 L 24.266,-24.266 L 19.266,-24.266 z
M 19.266,-32.232 L 24.266,-32.232 L 24.266,-37.232 L 19.266,-37.232 z
M 19.266,-45.198 L 24.266,-45.198 L 24.266,-50.198 L 19.266,-50.198 z
M 32.232,-6.3 L 37.232,-6.3 L 37.232,-11.3 L 32.232,-11.3 z
M 32.232,-19.266 L 37.232,-19.266 L 37.232,-24.266 L 32.232,-24.266 z
M 32.232,-32.232 L 37.232,-32.232 L 37.232,-37.232 L 32.232,-37.232 z
M 32.232,-45.198 L 37.232,-45.198 L 37.232,-50.198 L 32.232,-50.198 z
M 45.198,-6.3 L 50.198,-6.3 L 50.198,-11.3 L 45.198,-11.3 z
M 45.198,-19.266 L 50.198,-19.266 L 50.198,-24.266 L 45.198,-24.266 z
M 45.198,-32.232 L 50.198,-32.232 L 50.198,-37.232 L 45.198,-37.232 z
M 45.198,-45.198 L 50.198,-45.198 L 50.198,-50.198 L 45.198,-50.198 z
" stroke="black" fill="lightgray" stroke-width="0.5"/></svg>
