<?xml version="1.0" standalone="no"?>
<!DOCTYPE svg PUBLIC "-//W3C//DTD SVG 1.1//EN" "http://www.w3.org/Graphics/SVG/1.1/DTD/svg11.dtd">
<svg width="57" height="57" viewBox="0 -57 57 57" xmlns="http://www.w3.org/2000/svg" version="1.1">
<title>OpenSCAD Model</title>
<path d="
M 0,-0 L 57,-0 L 57,-57 L 0,-57 z
M 4,-4 L 4,-13.5 L 13.5,-13.5 L 13.5,-4 z
M 4,-17.166 L 4,-26.666 L 13.5,-26.666 L 13.5,-17.166 z
M 4,-30.332 L 4,-39.832 L 13.5,-39.832 L 13.5,-30.332 z
M 4,-43.498 L 4,-52.998 L 13.5,-52.998 L 13.5,-43.498 z
M 17.166,-4 L 17.166,-13.5 L 26.666,-13.5 L 26.666,-4 z
M 17.166,-17.166 L 17.166,-26.666 L 26.666,-26.666 L 26.666,-17.166 z
M 17.166,-30.332 L 17.166,-39.832 L 26.666,-39.832 L 26.666,-30.332 z
M 17.166,-43.498 L 17.166,-52.998 L 26.666,-52.998 L 26.666,-43.498 z
M 30.332,-4 L 30.332,-13.5 L 39.832,-13.5 L 39.832,-4 z
M 30.332,-17.166 L 30.332,-26.666 L 39.832,-26.666 L 39.832,-17.166 z
M 30.332,-30.332 L 30.332,-39.832 L 39.832,-39.832 L 39.832,-30.332 z
M 30.332,-43.498 L 30.332,-52.998 L 39.832,-52.998 L 39.832,-43.498 z
M 43.498,-4 L 43.498,-13.5 L 52.998,-13.5 L 52.998,-4 z
M 43.498,-17.166 L 43.498,-26.666 L 52.998,-26.666 L 52.998,-17.166 z
M 43.498,-30.332 L 43.498,-39.832 L 52.998,-39.832 L 52.998,-30.332 z
M 43.498,-43.498 L 43.498,-52.998 L 52.998,-52.998 L 52.998,-43.498 z
" stroke="black" fill="lightgray" stroke-width="0.5"/></svg>
